Coordinates
version=1
nRows=24
nColumns=22
inDegrees=yes

Units are S.I. units (second, meters, Newtons, ...)
If the header above contains a line with 'inDegrees', this indicates whether rotational values are in degrees (yes) or radians (no).

endheader
time	pelvis_tilt	pelvis_list	pelvis_rotation	pelvis_tx	pelvis_ty	pelvis_tz	hip_flexion_r	hip_adduction_r	hip_rotation_r	knee_angle_r	ankle_angle_r	subtalar_angle_r	hip_flexion_l	hip_adduction_l	hip_rotation_l	knee_angle_l	ankle_angle_l	subtalar_angle_l	lumbar_extension	lumbar_bending	lumbar_rotation
      1.45000000	      2.15807471	     -0.74729667	     -0.82417321	      0.83300054	      1.08225603	     -0.33470051	     -4.30877738	      1.93837830	     -3.35226956	     -9.36043732	     11.18634679	     -3.90546461	     -3.21925751	     -0.25459137	     -1.35355306	    -10.82240985	     12.65181100	      0.16290744	     -3.03393139	     -1.43023117	     -5.06711243
      1.46000000	      2.14673038	     -0.73813308	     -0.87219352	      0.83230453	      1.08236743	     -0.33439862	     -4.19369121	      1.94362834	     -3.28064626	     -9.46461703	     11.14800644	     -4.05099536	     -3.08344676	     -0.26323961	     -1.41050163	    -10.97832425	     12.62562694	      0.27062670	     -3.03863325	     -1.43109391	     -5.00967780
      1.47000000	      2.19900941	     -0.72733600	     -0.89412827	      0.83156540	      1.08257905	     -0.33413296	     -4.14206700	      1.94612022	     -3.25964086	     -9.57287210	     11.09193908	     -4.09607412	     -3.00074952	     -0.27038455	     -1.44664811	    -11.15025574	     12.56254589	      0.30487816	     -3.12345019	     -1.42809214	     -5.00966566
      1.48000000	      2.20522062	     -0.72927750	     -0.94947471	      0.83070412	      1.08271277	     -0.33377711	     -4.01511476	      1.96562542	     -3.17330658	     -9.71391619	     11.04913577	     -4.25908995	     -2.83535026	     -0.29484978	     -1.50481217	    -11.38024572	     12.55299424	      0.41535715	     -3.16472215	     -1.41537577	     -4.93933604
      1.49000000	      2.24834727	     -0.73068266	     -0.98886696	      0.82976476	      1.08289655	     -0.33342173	     -3.91529018	      1.98541372	     -3.11302517	     -9.86958018	     11.00258541	     -4.37622650	     -2.68623460	     -0.31934568	     -1.53507198	    -11.64171115	     12.52857547	      0.49543696	     -3.25850885	     -1.40235956	     -4.90362940
      1.50000000	      2.33553477	     -0.73024454	     -1.02192352	      0.82875903	      1.08313500	     -0.33304843	     -3.85319638	      2.00383865	     -3.05784998	    -10.03753043	     10.95856423	     -4.42759474	     -2.56386164	     -0.34145579	     -1.55560307	    -11.93137531	     12.48166950	      0.52716977	     -3.40948727	     -1.39191023	     -4.89389746
      1.51000000	      2.36269962	     -0.75538716	     -1.08573756	      0.82759558	      1.08326199	     -0.33257663	     -3.69984661	      2.05569609	     -2.93165244	    -10.23704622	     10.91480517	     -4.60936807	     -2.33643087	     -0.39453366	     -1.58905566	    -12.28970263	     12.51794166	      0.63663500	     -3.50825392	     -1.35485335	     -4.82374212
      1.52000000	      2.44119630	     -0.77410090	     -1.12762538	      0.82636544	      1.08344389	     -0.33210477	     -3.59313653	      2.10145478	     -2.84972046	    -10.44711261	     10.88368695	     -4.72708599	     -2.13627672	     -0.44091253	     -1.60382803	    -12.68717683	     12.52351461	      0.69645322	     -3.67278969	     -1.32576999	     -4.78824460
      1.53000000	      2.54140483	     -0.79826619	     -1.16879148	      0.82502674	      1.08363904	     -0.33160572	     -3.50100626	      2.15453279	     -2.76729293	    -10.66091555	     10.85863641	     -4.81788943	     -1.93089276	     -0.49259667	     -1.61671906	    -13.12490431	     12.52824094	      0.72985687	     -3.87623765	     -1.29038479	     -4.74662382
      1.54000000	      2.63310292	     -0.83291375	     -1.21699090	      0.82358472	      1.08380211	     -0.33103988	     -3.38226403	      2.22407269	     -2.65961799	    -10.89825144	     10.82716788	     -4.93329403	     -1.68823247	     -0.55758074	     -1.62998116	    -13.60623629	     12.55299790	      0.76723496	     -4.07653948	     -1.24358567	     -4.70923143
      1.55000000	      2.72797570	     -0.86815579	     -1.26565669	      0.82203977	      1.08395394	     -0.33043313	     -3.25573167	      2.29703874	     -2.54965315	    -11.14653453	     10.79636282	     -5.04851685	     -1.42557874	     -0.62377416	     -1.63870668	    -14.11880703	     12.57240981	      0.80011372	     -4.28914544	     -1.19501335	     -4.67941752
      1.56000000	      2.83153942	     -0.90590856	     -1.31450377	      0.82039920	      1.08410455	     -0.32977377	     -3.13305276	      2.37619832	     -2.44427478	    -11.39438168	     10.76750986	     -5.15168639	     -1.15202410	     -0.69475524	     -1.64595293	    -14.65842084	     12.58548829	      0.82512302	     -4.51821336	     -1.14583527	     -4.64660286
      1.57000000	      2.88986550	     -0.94114465	     -1.37288763	      0.81863683	      1.08418576	     -0.32905082	     -2.95070456	      2.45851706	     -2.30765668	    -11.65104826	     10.72181561	     -5.30155901	     -0.81084441	     -0.76561053	     -1.64560387	    -15.22196046	     12.59187322	      0.87679094	     -4.70329794	     -1.09596722	     -4.62329536
      1.58000000	      3.01842319	     -0.98524306	     -1.42879107	      0.81685002	      1.08435703	     -0.32828057	     -2.85618668	      2.54881502	     -2.22181734	    -11.88148568	     10.69411698	     -5.36688747	     -0.54475490	     -0.84658813	     -1.63992727	    -15.78472554	     12.59606552	      0.88727224	     -4.96594025	     -1.04224073	     -4.57304912
      1.59000000	      3.11074885	     -1.03491404	     -1.49441139	      0.81496180	      1.08448142	     -0.32744565	     -2.72525946	      2.64975004	     -2.11250728	    -12.09728753	     10.64431255	     -5.45453272	     -0.22717104	     -0.93768489	     -1.63389166	    -16.36306420	     12.59048858	      0.91587919	     -5.19144226	     -0.98125610	     -4.51975320
      1.60000000	      3.17045023	     -1.08329183	     -1.56671881	      0.81298055	      1.08456551	     -0.32655311	     -2.56105607	      2.75324381	     -1.99326199	    -12.30152761	     10.57816149	     -5.55978933	      0.13081607	     -1.02983519	     -1.60606516	    -16.94405625	     12.58132902	      0.96634336	     -5.38137159	     -0.92122327	     -4.46306778
      1.61000000	      3.23035096	     -1.12487478	     -1.63671367	      0.81091080	      1.08466149	     -0.32564189	     -2.40576424	      2.84934923	     -1.88939744	    -12.48099882	     10.50704724	     -5.65294836	      0.49599945	     -1.11603256	     -1.56514317	    -17.52912222	     12.54553369	      1.02734987	     -5.57600596	     -0.86453489	     -4.41442409
      1.62000000	      3.29353718	     -1.17058187	     -1.70073478	      0.80877906	      1.08477843	     -0.32469078	     -2.27459856	      2.95190792	     -1.81220258	    -12.61580246	     10.42717143	     -5.72604746	      0.86566470	     -1.20937815	     -1.50892175	    -18.12208625	     12.48965885	      1.09134568	     -5.77493193	     -0.80597578	     -4.34880680
      1.63000000	      3.36423463	     -1.21529014	     -1.75338143	      0.80658134	      1.08492568	     -0.32373197	     -2.17426988	      3.05278063	     -1.77083520	    -12.70109872	     10.34437564	     -5.77969341	      1.23885000	     -1.30451674	     -1.44730814	    -18.72648457	     12.38978122	      1.15661533	     -5.98368334	     -0.74661744	     -4.27540659
      1.64000000	      3.39332901	     -1.26683288	     -1.79480649	      0.80425394	      1.08502953	     -0.32276501	     -2.03404693	      3.16464217	     -1.72834172	    -12.76679068	     10.22948934	     -5.84168280	      1.67547209	     -1.40774973	     -1.34834027	    -19.35126501	     12.29850937	      1.25533553	     -6.15424339	     -0.67382926	     -4.21258007
      1.65000000	      3.38707337	     -1.30748896	     -1.82232468	      0.80179860	      1.08509498	     -0.32179669	     -1.85373539	      3.26730726	     -1.69818287	    -12.82593651	     10.10569974	     -5.90813222	      2.16791489	     -1.49842488	     -1.20838622	    -19.99199795	     12.21089725	      1.39596664	     -6.29316901	     -0.60987931	     -4.16737928
      1.66000000	      3.39313453	     -1.34994618	     -1.82711779	      0.79927377	      1.08519804	     -0.32084881	     -1.71239405	      3.37076167	     -1.70930848	    -12.82924148	      9.97404052	     -5.95466049	      2.65885945	     -1.59236202	     -1.05760503	    -20.63920620	     12.07545122	      1.53671377	     -6.45100719	     -0.54115541	     -4.11370795
      1.67000000	      3.38161852	     -1.39273415	     -1.80876514	      0.79664398	      1.08528363	     -0.31992848	     -1.56126211	      3.47477533	     -1.74709997	    -12.80664035	      9.83210198	     -5.99627922	      3.18576296	     -1.68629662	     -0.88059738	    -21.29997657	     11.92218832	      1.70291035	     -6.59601859	     -0.46839569	     -4.07182463
      1.68000000	      3.35825591	     -1.43324527	     -1.76767671	      0.79391368	      1.08536135	     -0.31904288	     -1.40865892	      3.57547621	     -1.81107220	    -12.75298874	      9.68218412	     -6.03208090	      3.73518928	     -1.77568016	     -0.67647979	    -21.95921296	     11.75361812	      1.88941513	     -6.73818907	     -0.39270126	     -4.03353834
